<svg id="Layer_2" data-name="Layer 2" xmlns="http://www.w3.org/2000/svg" viewBox="0 0 385.11 325.26">
    <defs>
        <style>.cls-1{fill:red;stroke:#ed1c24;stroke-miterlimit:10;}.cls-2{fill:#fff;}.cls-3{fill:none;}
        </style>
    </defs>
    <title>jazz</title>
    <g id="Layer_3" data-name="Layer 3">
        <circle class="cls-1 circle" cx="189.38" cy="197.85" r="125.33"/>
        <path class="cls-2 J" d="M256.52,213.73q0,3.45-.26,10.35T256,234.44c0,1.12,0,2.79,0,5s0,3.85,0,4.95a45.8,45.8,0,0,1-1.4,12.49,20.21,20.21,0,0,1-6.79,10.37,2,2,0,0,1-1,.52c-.16,0-.35-.13-.56-.38a69.65,69.65,0,0,0-4.92-5,.77.77,0,0,1-.32-.53.93.93,0,0,1,.39-.63,31,31,0,0,0,3.23-3.09,11.69,11.69,0,0,0,2-4.12q.89-3.22.88-13.32l0-5.31q0-3.3-.42-10.65-.42-7.06-.42-10.66a.9.9,0,0,1,1-1c.45,0,1.11,0,2,.1s1.56.11,2,.11,1.1,0,2-.11,1.51-.1,1.93-.1C256.23,213,256.52,213.26,256.52,213.73Z" transform="translate(-110.62 -43.83)"/><path class="cls-2 A" d="M307.25,261.86q0,.42-.84.42c-.45,0-1.1,0-2-.11s-1.5-.1-1.95-.1-1.11,0-2,.1-1.56.11-2,.11q-1,0-2.52-5.33c-1-3.55-2.05-5.35-3.11-5.39q-1.31-.08-6.78-.07h-5.56q-5.8,0-6.61.07-1.26.1-2.69,5.41t-2.2,5.31h-7.91c-.46,0-.7-.16-.7-.49a6.26,6.26,0,0,1,.49-1.58l8.62-23.56q1.08-2.85,6.61-16.42,1-2.25,2.67-6.78c.28-.89.58-1.34.91-1.34a15.64,15.64,0,0,1,2,.18,17.28,17.28,0,0,0,2,.17,14,14,0,0,0,1.92-.19,13.7,13.7,0,0,1,1.88-.19c.21,0,.5.43.88,1.3q.84,2,8.33,21.2Q307.25,261.61,307.25,261.86Zm-16.38-19.41q0-1-3.17-9.14-3.06-7.87-4.32-10.34-7.28,18.57-7.28,19.45c0,.79.89,1.26,2.67,1.4.1,0,1.25,0,3.45,0h3.62Q290.87,243.86,290.87,242.45Z" transform="translate(-110.62 -43.83)"/>
        <path class="cls-2 Z" d="M341.88,254.23a23,23,0,0,1-.46,3.76,24.12,24.12,0,0,0-.46,3.8c0,.51-.28.77-.84.77q-2.12,0-6.28-.14t-6.27-.14h-16.7c-.66,0-1-.23-1.16-.7a33.34,33.34,0,0,1-.77-5.87q0-.39,10.7-17.21t10.71-17.67c0-.26-.3-.39-.88-.39H310.73a.62.62,0,0,1-.7-.7c0-.19.17-1.25.51-3.2s.55-3.08.63-3.39.36-.48.83-.48c.91,0,2.26.09,4.06.25s3.13.25,4,.25h19.76a.71.71,0,0,1,.77.59,22.38,22.38,0,0,1,.53,5.24q0,.21-11.13,17.69t-11.16,18a.79.79,0,0,0,.67.24q10.2,0,15.61-.42l3.16-.39a25.46,25.46,0,0,1,3.13-.28C341.73,253.84,341.88,254,341.88,254.23Z" transform="translate(-110.62 -43.83)"/>
        <path class="cls-2" d="M378.23,254.23a23,23,0,0,1-.46,3.76,23.84,23.84,0,0,0-.45,3.8c0,.51-.29.77-.85.77-1.4,0-3.5-.05-6.27-.14s-4.87-.14-6.28-.14h-16.7c-.65,0-1-.23-1.16-.7a34.34,34.34,0,0,1-.77-5.87q0-.39,10.7-17.21t10.71-17.67c0-.26-.29-.39-.88-.39H347.08a.62.62,0,0,1-.7-.7c0-.19.17-1.25.51-3.2s.55-3.08.63-3.39.36-.48.83-.48c.91,0,2.26.09,4.06.25s3.13.25,4,.25h19.76a.71.71,0,0,1,.77.59,21.86,21.86,0,0,1,.53,5.24q0,.21-11.13,17.69t-11.16,18a.79.79,0,0,0,.67.24q10.2,0,15.61-.42l3.16-.39a25.46,25.46,0,0,1,3.13-.28C378.08,253.84,378.23,254,378.23,254.23Z" transform="translate(-110.62 -43.83)"/>
        <rect class="cls-3" width="385.11" height="325.26"/></g></svg>