<svg id="Layer_2" data-name="Layer 2" xmlns="http://www.w3.org/2000/svg" viewBox="0 0 385.22 325.26"><defs>
    <style>.cls-1,.cls-2{fill:none;}.cls-1{stroke:#ed1c24;stroke-miterlimit:10;}
    .H{opacity:0;animation:30s 5s showletter infinite}
    .AA{opacity:0;animation:30s 5.1s showletter infinite}
    .V{opacity:0;animation:30s 5.2s showletter infinite}
    .A{opacity:0;animation:30s 5.3s showletter infinite}
    .R{opacity:0;animation:30s 5.4s showletter infinite}
    .D{opacity:0;animation:30s 5.5s showletter infinite}
    .Dto{opacity:0;animation:30s 5.6s showletter infinite}
    .Ato{opacity:0;animation:30s 5.7s showletter infinite}
    .Hto{opacity:0;animation:30s 5.8s showletter infinite}
    .L{opacity:0;animation:30s 5.9s showletter infinite}
    .and{opacity:0;animation:30s 6s showletter infinite}
    .T{opacity:0;animation:30s 6.1s showletter infinite}
    .Hthree{opacity:0;animation:30s 6.2s showletter infinite}
    .E{opacity:0;animation:30s 6.3s showletter infinite}
    .J{opacity:0;animation:30s 6.4s showletter infinite}
    .Athree{opacity:0;animation:30s 6.5s showletter infinite}
    .X{opacity:0;animation:30s 6.6s showletter infinite}
    .M{opacity:0;animation:30s 6.7s showletter infinite}
    .Etwo{opacity:0;animation:30s 6.8s showletter infinite}
    .S{opacity:0;animation:30s 6.9s showletter infinite}
    .Sto{opacity:0;animation:30s 7s showletter infinite}
    .Ethree{opacity:0;animation:30s 7.1s showletter infinite}
    .N{opacity:0;animation:30s 7.2s showletter infinite}
    .G{opacity:0;animation:30s 7.3s showletter infinite}
    .Efour{opacity:0;animation:30s 7.4s showletter infinite}
    .Rto{opacity:0;animation:30s 7.5s showletter infinite}
    .Sthree{opacity:0;animation:30s 7.6s showletter infinite}
    .circle{display:none}
    @keyframes showletter{
        0%{opacity:0}
        5%{opacity:1}
        100%{opacity:1}
        }
    
    </style>
    </defs>
    <title>maintext</title>
    <g id="Layer_1" data-name="Layer 1">
        <path class="H unhide" d="M177.37,169.93c.59.16.78.63.56,1.41-.12.44-.35,1.1-.68,2s-.56,1.57-.69,2-.31,1.24-.51,2.26-.36,1.77-.5,2.26a.82.82,0,0,1-1.14.64q-3.48-1-10.4-3.13c-4.6-1.43-8.07-2.48-10.39-3.12-1-.29-1.67-.15-2,.4q-.65,1.08-4,13.31t-3.42,13.49c0,.61.49,1.06,1.5,1.34q3.41.94,10.32,2.66t10.31,2.67c.86.24,1.19.68,1,1.32s-.38,1.22-.73,2.18-.59,1.68-.73,2.17-.28,1.17-.46,2.11-.33,1.64-.46,2.1c-.18.65-.57.89-1.16.72q-4.26-1.19-12.69-4t-12.68-4q-4.5-1.25-13.61-3.35t-13.61-3.36c-.57-.15-.77-.56-.59-1.2.13-.47.37-1.16.71-2.1s.59-1.64.73-2.13.29-1.2.48-2.21.36-1.73.49-2.2.48-.82,1-.69q3.33.93,9.93,3.08t9.93,3.08a1.23,1.23,0,0,0,1.54-.45q.61-.87,4.15-13.53,3.45-12.39,3.43-13.65c0-.64-.47-1.09-1.42-1.36q-3.25-.9-9.86-2.52t-9.85-2.51c-.52-.15-.7-.52-.53-1.11s.37-1.2.71-2.12.58-1.62.72-2.12.29-1.17.47-2.12.33-1.66.46-2.12c.19-.67.57-.93,1.13-.77q4.5,1.25,13.39,4.15t13.39,4.15q4.26,1.18,12.92,3.14T177.37,169.93Z" transform="translate(-110.52 -43.83)"/>
        <path class="AA unhide" d="M155.51,113.58a8.91,8.91,0,0,1,3.64,6.26,9.48,9.48,0,0,1-1.84,7.1,9.27,9.27,0,0,1-6.22,3.74,8.94,8.94,0,0,1-7-1.7,9.42,9.42,0,0,1-3.8-6.28,9.14,9.14,0,0,1,1.77-7.1,9.62,9.62,0,0,1,13.47-2Zm-2.85,3.84a5.26,5.26,0,0,0-3.76-1.08,4.73,4.73,0,0,0-4.15,5.6,5.23,5.23,0,0,0,2.11,3.29,4.68,4.68,0,0,0,3.59.87,4.58,4.58,0,0,0,3.16-1.81,4.81,4.81,0,0,0,.93-3.64A4.65,4.65,0,0,0,152.66,117.42ZM175,114.25a6.34,6.34,0,0,1,.51.52,96.11,96.11,0,0,0,11.81,10.73q.31.24,15.09,10l.47.3a1,1,0,0,1,.31,1.55,29.62,29.62,0,0,0-1.78,2.84,33.14,33.14,0,0,1-1.77,2.81c-.31.41-1.29.17-3-.74s-2.57-1.26-2.71-1.06a10.14,10.14,0,0,0,0,2.67,23.63,23.63,0,0,1-.28,5.31,14,14,0,0,1-2.49,6.05A16.66,16.66,0,0,1,178.27,162a20.72,20.72,0,0,1-14.16-4.2q-7.17-5.33-8.8-12.9A17.84,17.84,0,0,1,158.83,130a15.2,15.2,0,0,1,9.82-6.08c.7,0,1.75-.15,3.14-.32a.39.39,0,0,0,.24-.12c.1-.13-.45-.82-1.63-2.06s-1.63-2-1.36-2.41a23.74,23.74,0,0,1,2.91-2.9C173.65,114.65,174.65,114,175,114.25Zm7.37,18.25a12.86,12.86,0,0,0-8.56-2.71,9.74,9.74,0,0,0-7.78,4.08,10.11,10.11,0,0,0-1.76,8.71,12.67,12.67,0,0,0,5,7.57,12.54,12.54,0,0,0,8.63,2.55,10.2,10.2,0,0,0,7.79-4.23,9.81,9.81,0,0,0,1.63-8.6A12.67,12.67,0,0,0,182.32,132.5Z" transform="translate(-110.52 -43.83)"/>
        <path class="V unhide" d="M218.19,92.27c2.25,3,3.47,4.87,3.64,5.51q.6,1.8,1.1,12.37.48,10.81-.17,11.9a12.49,12.49,0,0,1-2.56,2.21,16.29,16.29,0,0,1-3,1.92q-1.12.38-11.33-2.9-9.93-3.16-11.62-4.23a23.53,23.53,0,0,1-5.45-5.71c-.66-.88-1.62-2.21-2.89-4s-2.23-3.13-2.89-4a.79.79,0,0,1,.18-1.24c.71-.53,1.79-1.29,3.25-2.27s2.54-1.74,3.24-2.27a.68.68,0,0,1,1.07.21c.51.69,1.22,1.74,2.14,3.15s1.62,2.45,2.14,3.14a52.37,52.37,0,0,0,4.35,5.18q1.08,1.09,7.74,3.56c4.44,1.63,6.91,2.27,7.41,1.9s.48-2.78,0-7.29-.87-7.09-1.33-8a50,50,0,0,0-3.87-5.74c-.53-.71-1.39-1.72-2.59-3s-2.06-2.32-2.59-3a.54.54,0,0,1,.13-.85c.71-.53,1.72-1.34,3-2.44s2.32-1.91,3-2.42S213.66,86.19,218.19,92.27Z" transform="translate(-110.52 -43.83)"/>
        <path class="A unhide" d="M261.38,64.7a4.12,4.12,0,0,1,.13.72,97.83,97.83,0,0,0,3.85,15.49q.15.38,7,16.66l.22.52a1,1,0,0,1-.61,1.45c-.69.25-1.71.71-3.05,1.37a32.65,32.65,0,0,1-3,1.36c-.48.17-1.16-.58-2-2.26s-1.44-2.48-1.67-2.4a11.09,11.09,0,0,0-1.52,2.21,23.12,23.12,0,0,1-3.18,4.25,13.92,13.92,0,0,1-5.44,3.64,16.66,16.66,0,0,1-14.48-1.46,20.72,20.72,0,0,1-9.42-11.36q-3-8.42-.14-15.61a17.84,17.84,0,0,1,11.22-10.44,15.24,15.24,0,0,1,11.54.41c.61.35,1.54.85,2.79,1.48a.33.33,0,0,0,.27,0q.23-.08-.21-2.61t.21-2.76a24.18,24.18,0,0,1,4-.8C260.08,64.31,261.26,64.34,261.38,64.7Zm-4,19.27a12.9,12.9,0,0,0-5.61-7A9.75,9.75,0,0,0,243,76a10.12,10.12,0,0,0-6.3,6.26,12.66,12.66,0,0,0-.06,9.07,12.47,12.47,0,0,0,5.75,6.91,10.16,10.16,0,0,0,8.83.82,9.85,9.85,0,0,0,6.14-6.24A12.66,12.66,0,0,0,257.37,84Z" transform="translate(-110.52 -43.83)"/>
        <path class="R unhide" d="M296.3,59.7a48.33,48.33,0,0,1,.19,8.06c0,.62-.25,1-.71,1a24.54,24.54,0,0,1-2.55.07c-1.15,0-2,0-2.6.08-3.36.33-5.42,1.49-6.16,3.48q-.68,1.8-.13,7.24l.43,4.4c.15,1.49.43,3.76.85,6.78s.71,5.29.86,6.79c.07.72-.2,1.11-.82,1.17l-3.76.33-3.77.33c-.61.06-.95-.24-1-.91-.21-2.16-.5-5.41-.86-9.77s-.65-7.62-.87-9.81q-1-9.89-3.41-15.7a2,2,0,0,1-.13-.47.7.7,0,0,1,.45-.73l4.12-.9c2.82-.81,4.13-1.21,3.92-1.19.42,0,.78.72,1.07,2.28s.61,2.32,1,2.28a.35.35,0,0,0,.2-.09L285.62,62a14.86,14.86,0,0,1,3.53-2,13.56,13.56,0,0,1,4-.88C295.18,59,296.25,59.14,296.3,59.7Z" transform="translate(-110.52 -43.83)"/>
        <path class="Dto unhide" d="M347.48,46.62q-.74,5.13-2.66,15.32c-1.29,6.78-2.17,11.88-2.66,15.27q-2.25,15.72-2.73,23.9l0,.52c0,.27-.39.39-1.15.36a14,14,0,0,1-2.15-.31c-1.1-.23-1.61-.35-1.53-.34-.4,0-1-.1-1.77-.13a17.73,17.73,0,0,1-1.77-.13c-.37,0-.46-1-.26-2.86s.24-2.8.11-2.85a2.32,2.32,0,0,0-.67.43q-6.3,5.11-13.38,4.09a16.67,16.67,0,0,1-12.34-8,21,21,0,0,1-2.9-14.63,21.45,21.45,0,0,1,7-13.54,17.07,17.07,0,0,1,14.36-4.11,13.88,13.88,0,0,1,8.33,4.2q1.5,1.71,3,3.47c.22-.05.35-.22.4-.51l1.85-12.9q.18-1.31.45-4c.17-1.79.32-3.14.45-4,.1-.64.35-.92.78-.86,1,.14,2.45.26,4.41.37s3.42.22,4.38.36C347.38,45.75,347.56,46.06,347.48,46.62ZM332.34,81.41a13,13,0,0,0-1.74-8.82,9.81,9.81,0,0,0-7.25-5,10.16,10.16,0,0,0-8.62,2.66,13,13,0,0,0-4.26,8.16,12.22,12.22,0,0,0,1.95,8.77,10.21,10.21,0,0,0,7.42,4.88,9.85,9.85,0,0,0,8.43-2.65A13.15,13.15,0,0,0,332.34,81.41Z" transform="translate(-110.52 -43.83)"/>
        <path class="D unhide" d="M417.07,114.14a30.85,30.85,0,0,1-16.42,12.39q-10.86,3.38-19.85-2.86c-1.14-.79-2.84-2-5.08-3.71s-3.93-2.93-5.07-3.72-2.63-1.76-4.77-3.11-3.73-2.39-4.76-3.11a.89.89,0,0,1-.26-1.4q2.5-3.6,7.82-10.67t7.84-10.71q2.66-3.83,7.73-11.71T392,63.82c.33-.47.77-.5,1.35-.1.81.56,2,1.42,3.62,2.56s2.81,2,3.63,2.57,1.9,1.3,3.46,2.35,2.73,1.84,3.52,2.39Q419,81.54,421.64,89.77a24.57,24.57,0,0,1,.45,12.68A31.74,31.74,0,0,1,417.07,114.14Zm-8.1-5.62q4.95-7.12,4-14.44-1-7.59-8.06-12.5-5.85-4-4.68-3.34-4-2.47-4.85-1.26-1.77,2.55-5.4,7.54t-5.4,7.53q-1.74,2.51-5.1,7.61t-5.11,7.61c-.58.84.4,2.24,3,4.21q-.51-.41,4.84,3.31a22.56,22.56,0,0,0,6.6,3.4,14.06,14.06,0,0,0,7.53-.21A22.82,22.82,0,0,0,409,108.52Z" transform="translate(-110.52 -43.83)"/>
        <path class="A unhide" d="M454.27,149.94a6.23,6.23,0,0,1-.66.33,96.48,96.48,0,0,0-13.71,8.15q-.33.24-13.94,11.51l-.43.37a1,1,0,0,1-1.57-.17c-.44-.59-1.17-1.43-2.19-2.53a32.2,32.2,0,0,1-2.18-2.51c-.3-.42.22-1.28,1.58-2.61s1.95-2.09,1.81-2.29a10.5,10.5,0,0,0-2.55-.81,24,24,0,0,1-5-1.83,14,14,0,0,1-5.06-4.16,16.65,16.65,0,0,1-2.77-14.28,20.73,20.73,0,0,1,8.16-12.3q7.19-5.3,14.91-4.64a17.84,17.84,0,0,1,13.23,7.74,15.24,15.24,0,0,1,2.93,11.17c-.16.68-.36,1.71-.61,3.09a.33.33,0,0,0,0,.27c.09.13.91-.19,2.44-.95s2.44-1,2.71-.6a24.92,24.92,0,0,1,1.92,3.63C454.26,148.58,454.57,149.72,454.27,149.94Zm-19.61,1.71a12.9,12.9,0,0,0,5.09-7.4,9.75,9.75,0,0,0-1.62-8.64,10.12,10.12,0,0,0-7.81-4.23,12.69,12.69,0,0,0-8.7,2.56,12.44,12.44,0,0,0-5,7.5,10.18,10.18,0,0,0,1.75,8.69,9.88,9.88,0,0,0,7.75,4.08A12.7,12.7,0,0,0,434.66,151.65Z" transform="translate(-110.52 -43.83)"/>
        <path class="Hto unhide" d="M439.07,206.75c-.93.33-1.5.24-1.69-.29q-.42-1.19-1.23-3.57c-.55-1.6-1-2.79-1.24-3.58-.23-.63.08-1.09.91-1.39,1.21-.43,3.05-1,5.53-1.83s4.34-1.41,5.58-1.85,2.9-1.09,5.23-2,4.08-1.61,5.27-2q6.81-2.43,4.5-8.87-.75-2.09-4-4.71-3.52-2.79-5.38-2.13L430,182.52c-.73.27-1.19.13-1.38-.4-.28-.78-.69-2-1.22-3.53s-.95-2.75-1.23-3.53c-.21-.58,0-1,.71-1.24l18.28-6.55q4.47-1.61,18.82-7.31,4.47-1.68,13.09-5.42c.29-.15.48-.25.58-.29a.78.78,0,0,1,1,.17,22.86,22.86,0,0,1,1.76,4.2,16.5,16.5,0,0,0,1.13,2.28,15.11,15.11,0,0,1,1.12,2.2c.11.33-.07.58-.55.75q-3.56,1.29-10.79,3.55T460.53,171c-.58.21-.85.42-.8.63,1.55.9,3.45,2.09,5.73,3.59a15.46,15.46,0,0,1,5.11,7q2.55,7.11-.72,11.32-2.42,3-9.15,5.46c-.78.28-2,.69-3.63,1.24s-2.86,1-3.64,1.24q-2.42.87-7.2,2.67C443.05,205.29,440.66,206.18,439.07,206.75Z" transform="translate(-110.52 -43.83)"/>
        <path class="L unhide" d="M494.35,214.52l-.53,0q-14.93,1.26-25.55,2.79-4.74.67-14.16,2.2T440,221.73c-.61.09-.94-.08-1-.5l-1.1-7.6c-.07-.48.2-.77.82-.85q4.69-.67,14.15-2t14.2-2q4.31-.62,12.85-2.27t12.82-2.27c.53-.08.83.16.91.72s.13,1.2.19,2.16.12,1.69.19,2.17.22,1.24.44,2.21.37,1.69.43,2.17S494.77,214.48,494.35,214.52Z" transform="translate(-110.52 -43.83)"/>
        <circle class="cls-1 circle" cx="189.48" cy="197.85" r="125.33"/>
        <path class="and unhide" d="M322.26,214.44c0,.25,0,.63-.08,1.14a11.15,11.15,0,0,0-.09,1.18c0,.2,0,.51.07.93a8.82,8.82,0,0,1,.07,1c0,.91-.53,1.37-1.58,1.37-.6,0-1.49,0-2.68.07s-2.07.06-2.68.06a11.53,11.53,0,0,1-6.09-2.11,20.71,20.71,0,0,1-4.86-4.39,27.39,27.39,0,0,1-6.13,5.5,15.44,15.44,0,0,1-8,2,10.4,10.4,0,0,1-8.21-3.55,12.43,12.43,0,0,1-3-8.54,14.42,14.42,0,0,1,3.12-9.38,27.82,27.82,0,0,1,8-6.27,25,25,0,0,1-1.94-8.64c0-3.75,1-6.74,3-9s5-3.38,8.68-3.38a12.64,12.64,0,0,1,7.54,2.21,7.89,7.89,0,0,1,3.45,6.77,11.16,11.16,0,0,1-4,8.41,49.41,49.41,0,0,1-8.1,5.39,61.87,61.87,0,0,0,6.16,8.71,33.72,33.72,0,0,1,5.9-6.23,13.87,13.87,0,0,1,8.17-2.28,6.55,6.55,0,0,1,1.88.17,1.4,1.4,0,0,1,.87,1.47,9.19,9.19,0,0,1-1.58,5.3c-1,.09-2,.16-3,.23a10.14,10.14,0,0,0-2.95.7,14,14,0,0,0-5.53,4.83,18.44,18.44,0,0,0,4.79,4.12,13.39,13.39,0,0,0,6.1,1.21h1.64C321.9,213.62,322.26,213.93,322.26,214.44Zm-21.37-4.89a78.42,78.42,0,0,1-8.18-10.92q-6.36,4.05-6.36,9.68a6.51,6.51,0,0,0,1.57,4.49,5.48,5.48,0,0,0,4.32,1.88Q296.37,214.68,300.89,209.55Zm3.72-27.87a4,4,0,0,0-1.28-3.12,4.69,4.69,0,0,0-3.25-1.14c-3.7,0-5.56,1.88-5.56,5.63a24.69,24.69,0,0,0,1.44,7.34,41.29,41.29,0,0,0,5.5-3.45Q304.61,184.42,304.61,181.68Z" transform="translate(-110.52 -43.83)"/>
        <path class="T unhide" d="M145.19,247.81c0,.39-.13.58-.4.58s-3.06-.08-7.91-.26q-.19,6.81-.2,10.92,0,2.56.19,7.7t.19,7.71c0,.31-.22.47-.65.47-.27,0-.68,0-1.23-.07s-1-.07-1.25-.07-.67,0-1.23.07-1,.07-1.22.07a.49.49,0,0,1-.56-.56q0-2.55.21-7.65t.21-7.67q0-4-.24-10.92c-3.85.23-6.66.35-8.45.35-.17,0-.26-.07-.26-.22a4.64,4.64,0,0,1,.2-1.16c.16-.66.26-1,.29-1.16a17.09,17.09,0,0,1,.31-2.17.39.39,0,0,1,.38-.29l.27,0c5.27.32,8.75.47,10.43.47q2.23,0,7.3-.33a21.62,21.62,0,0,0,2.88-.23c.39,0,.61.14.65.41a15.31,15.31,0,0,0,0,2.16c0,.2,0,.5.06.91A8.12,8.12,0,0,1,145.19,247.81Z" transform="translate(-110.52 -43.83)"/>
        <path class="Hthree unhide" d="M167.35,274.15c0,.55-.16.82-.47.82l-2.1,0-2.1,0c-.37,0-.56-.25-.56-.74,0-.71,0-1.79.08-3.24s.08-2.53.08-3.26,0-1.72-.08-3.11-.08-2.44-.08-3.14q0-4-3.8-4a6.64,6.64,0,0,0-3.21,1.23c-1.42.87-2.13,1.68-2.13,2.41v13.26c0,.44-.15.65-.46.65l-2.08,0-2.08,0c-.34,0-.51-.2-.51-.61V263.54q0-2.64-.29-11.21,0-2.67-.38-7.87a3.05,3.05,0,0,1-.05-.35c0-.26.09-.41.27-.47a12.12,12.12,0,0,1,2.52-.14,8.67,8.67,0,0,0,1.41-.16,8,8,0,0,1,1.36-.17c.2,0,.29.14.29.42,0,1.4,0,3.51-.16,6.31s-.17,4.91-.17,6.31q0,.51.18.54c.76-.64,1.74-1.42,2.95-2.33a8.68,8.68,0,0,1,4.62-1.36c2.8,0,4.73.84,5.78,2.5q1.14,1.83,1.14,5.81,0,.69,0,2.13c0,1,0,1.68,0,2.14,0,.95,0,2.37,0,4.26S167.35,273.21,167.35,274.15Z" transform="translate(-110.52 -43.83)"/>
        <path class="E unhide" d="M190.55,262.93a2.17,2.17,0,0,1-1.43,2.22q-1,.35-13.82,1.31a5,5,0,0,0,2.16,3.35,6.33,6.33,0,0,0,3.84,1.32,10.33,10.33,0,0,0,6.48-2.28l.72-.58a.39.39,0,0,1,.23.05s.32.54.84,1.55a12.54,12.54,0,0,1,.78,1.62q0,.13-.36.51a11.25,11.25,0,0,1-19.76-7.86,11.91,11.91,0,0,1,2.94-8,9.73,9.73,0,0,1,7.62-3.55,9.1,9.1,0,0,1,7,3.08A10.36,10.36,0,0,1,190.55,262.93Zm-5.31-1.36a4.45,4.45,0,0,0-1.47-3.28,4.6,4.6,0,0,0-3.29-1.43,4.94,4.94,0,0,0-3.65,1.65,5.19,5.19,0,0,0-1.6,3.71c0,.31.27.47.8.47a55.57,55.57,0,0,0,7.91-.67C184.8,261.9,185.24,261.75,185.24,261.57Z" transform="translate(-110.52 -43.83)"/>
        <path class="J unhide" d="M212.77,244.08c0,1.46-.05,3.66-.16,6.58s-.17,5.12-.17,6.58c0,.71,0,1.77,0,3.17s0,2.45,0,3.15a28.74,28.74,0,0,1-.89,7.93,12.8,12.8,0,0,1-4.31,6.59,1.32,1.32,0,0,1-.6.33.52.52,0,0,1-.36-.24,41.63,41.63,0,0,0-3.13-3.2.5.5,0,0,1-.2-.33.57.57,0,0,1,.25-.4,20.52,20.52,0,0,0,2-2,7.45,7.45,0,0,0,1.25-2.61,40.15,40.15,0,0,0,.56-8.47l0-3.37q0-2.1-.27-6.77-.27-4.49-.27-6.77a.57.57,0,0,1,.65-.64c.28,0,.71,0,1.27.06s1,.07,1.28.07.7,0,1.25-.07,1-.06,1.22-.06S212.77,243.79,212.77,244.08Z" transform="translate(-110.52 -43.83)"/>
        <path class="Athree unhide" d="M239,254.71a2.21,2.21,0,0,1-.07.41,53.71,53.71,0,0,0-.87,8.82q0,.22.56,10l0,.31c0,.43-.18.65-.59.65s-1,.05-1.85.14a17,17,0,0,1-1.85.15c-.28,0-.5-.52-.64-1.57s-.29-1.56-.43-1.56a5.7,5.7,0,0,0-1.2.87,12.85,12.85,0,0,1-2.46,1.63,7.71,7.71,0,0,1-3.53.9,9.25,9.25,0,0,1-7.3-3.47,11.49,11.49,0,0,1-2.82-7.7,12,12,0,0,1,2.84-8.2,9.9,9.9,0,0,1,7.82-3.37,8.48,8.48,0,0,1,6,2.37c.25.3.65.73,1.18,1.29a.19.19,0,0,0,.14.07c.09,0,.21-.47.38-1.41s.37-1.4.62-1.4a14.1,14.1,0,0,1,2.26.33C238.43,254.27,239,254.51,239,254.71Zm-5.7,9.34a7.12,7.12,0,0,0-1.63-4.71,5.39,5.39,0,0,0-4.4-2.12,5.62,5.62,0,0,0-4.46,2.1,7,7,0,0,0-1.72,4.73,6.91,6.91,0,0,0,1.72,4.69,5.63,5.63,0,0,0,4.46,2.08,5.48,5.48,0,0,0,4.38-2.12A7.08,7.08,0,0,0,233.34,264.05Z" transform="translate(-110.52 -43.83)"/>
        <path class="X unhide" d="M259.43,274.53c0,.2-.16.35-.47.42a4.06,4.06,0,0,1-1,0l-.8,0c-1.18,0-1.89-.14-2.12-.4q-1.37-2-4.16-6a3.89,3.89,0,0,0-.6-.71,21,21,0,0,0-2.5,3.41c-1.57,2.33-2.51,3.52-2.84,3.58a29.15,29.15,0,0,1-3.17.09c-.36,0-.54-.14-.54-.4v-2.44a31.66,31.66,0,0,1,3-3.84,23.56,23.56,0,0,0,3-3.95q0-.35-3-3.91t-3-3.93v-2.39q0-.45.54-.45c.37,0,.93,0,1.67.09s1.31.09,1.68.09a.71.71,0,0,1,.56.31c.88,1.36,2.22,3.35,4,6a4.18,4.18,0,0,0,.58.73,2.27,2.27,0,0,0,.49-.58q1.29-1.75,4.27-6.23a.61.61,0,0,1,.51-.31c.37,0,.92,0,1.65,0s1.27,0,1.63,0,.56.15.56.45v2.34q0,.4-3,4t-3,3.93a33.22,33.22,0,0,0,3,3.82q3,3.6,3,4Z" transform="translate(-110.52 -43.83)"/>
        <path class="M unhide" d="M305.42,274.37a.5.5,0,0,1-.56.56c-.27,0-.68,0-1.22-.07s-.95-.07-1.22-.07-.67,0-1.22.07-1,.07-1.23.07-.56-.25-.56-.74q0-2.83.18-8.51t.18-8.51q0-.42-.18-.42a.35.35,0,0,0-.32.24q-1.12,2.44-5.38,13-.69,2-2,5.07c-.1.19-.64.29-1.6.29-1.4,0-2.18-.12-2.33-.38q-.75-1.8-2.16-5.07-1.86-4.42-5.7-13.17a.77.77,0,0,0-.29-.32.59.59,0,0,0-.18.49c0,1.92,0,4.81.1,8.65s.1,6.72.1,8.64c0,.49-.18.74-.55.74s-.64,0-1.17-.07-.9-.07-1.16-.07-.66,0-1.19.07-.93.07-1.2.07-.56-.14-.56-.43q0-2.47.24-7.42c.16-3.3.23-5.78.23-7.43s-.07-4.28-.23-7.72-.24-6-.24-7.71c0-.28.18-.45.52-.49a38,38,0,0,1,4.58-.41c.15,0,.35.31.62.92q5.41,11.88,9.29,21.22a7.27,7.27,0,0,0,1.1,2.19c.15,0,.47-.6,1-1.79q3-7.23,8.42-21.49c.22-.58.47-.87.74-.87q.75,0,2.28.09c1,.06,1.79.09,2.29.09s.56.18.56.54c0,1.71-.05,4.28-.17,7.71s-.16,6-.16,7.72.06,4.1.19,7.37S305.42,272.75,305.42,274.37Z" transform="translate(-110.52 -43.83)"/>
        <path class="Etwo unhide" d="M329,262.93a2.16,2.16,0,0,1-1.43,2.22q-1,.35-13.82,1.31a5,5,0,0,0,2.17,3.35,6.33,6.33,0,0,0,3.84,1.32,10.33,10.33,0,0,0,6.47-2.28l.72-.58a.37.37,0,0,1,.23.05s.32.54.84,1.55a12.54,12.54,0,0,1,.78,1.62c0,.09-.12.26-.35.51a11.26,11.26,0,0,1-19.77-7.86,11.87,11.87,0,0,1,2.95-8,9.73,9.73,0,0,1,7.61-3.55,9.14,9.14,0,0,1,7,3.08A10.4,10.4,0,0,1,329,262.93Zm-5.31-1.36a4.48,4.48,0,0,0-1.46-3.28,4.64,4.64,0,0,0-3.3-1.43,4.94,4.94,0,0,0-3.65,1.65,5.19,5.19,0,0,0-1.6,3.71c0,.31.27.47.81.47a55.44,55.44,0,0,0,7.9-.67C323.28,261.9,323.71,261.75,323.71,261.57Z" transform="translate(-110.52 -43.83)"/>
        <path class="S unhide" d="M342.6,268.05a6.36,6.36,0,0,1-2.65,5.34,9.45,9.45,0,0,1-5.88,1.83,7.77,7.77,0,0,1-1.52-.07c-.25-.12-.38-.48-.38-1.09a13.46,13.46,0,0,0-.12-1.48,13.23,13.23,0,0,1-.12-1.45c0-.19.13-.32.4-.38a2.82,2.82,0,0,1,.83,0l.67.07c2.81,0,4.22-.87,4.22-2.59,0-.82-.62-1.57-1.86-2.26a35.46,35.46,0,0,1-3.46-2,5.22,5.22,0,0,1-1.85-4.15,6.14,6.14,0,0,1,2.52-5.23,9.45,9.45,0,0,1,5.76-1.68.49.49,0,0,1,.46.29,15.85,15.85,0,0,1,.56,1.81,11,11,0,0,1,.41,1.83c0,.17-.14.27-.42.32l-2.88.38c-1.15.31-1.72.93-1.72,1.87,0,.67.6,1.35,1.81,2a21.45,21.45,0,0,1,3.39,2.16A5.89,5.89,0,0,1,342.6,268.05Z" transform="translate(-110.52 -43.83)"/>
        <path class="Sto unhide" d="M356.27,268.05a6.35,6.35,0,0,1-2.66,5.34,9.4,9.4,0,0,1-5.87,1.83,7.77,7.77,0,0,1-1.52-.07c-.25-.12-.38-.48-.38-1.09a13.46,13.46,0,0,0-.12-1.48,13.23,13.23,0,0,1-.12-1.45c0-.19.13-.32.4-.38a2.76,2.76,0,0,1,.82,0l.67.07c2.82,0,4.23-.87,4.23-2.59,0-.82-.62-1.57-1.86-2.26a35.46,35.46,0,0,1-3.46-2,5.19,5.19,0,0,1-1.85-4.15,6.14,6.14,0,0,1,2.52-5.23,9.45,9.45,0,0,1,5.76-1.68.49.49,0,0,1,.46.29,15.85,15.85,0,0,1,.56,1.81,12.3,12.3,0,0,1,.41,1.83c0,.17-.14.27-.42.32l-2.88.38c-1.15.31-1.72.93-1.72,1.87,0,.67.6,1.35,1.81,2a21.45,21.45,0,0,1,3.39,2.16A5.89,5.89,0,0,1,356.27,268.05Z" transform="translate(-110.52 -43.83)"/>
        <path class="Ethree unhide" d="M378.41,262.93a2.17,2.17,0,0,1-1.43,2.22q-1,.35-13.83,1.31a5,5,0,0,0,2.17,3.35,6.33,6.33,0,0,0,3.84,1.32,10.37,10.37,0,0,0,6.48-2.28l.71-.58a.37.37,0,0,1,.23.05s.32.54.84,1.55a12.54,12.54,0,0,1,.78,1.62c0,.09-.12.26-.35.51a11.26,11.26,0,0,1-19.77-7.86,11.87,11.87,0,0,1,2.95-8,9.73,9.73,0,0,1,7.62-3.55,9.13,9.13,0,0,1,7,3.08A10.41,10.41,0,0,1,378.41,262.93Zm-5.32-1.36a4.48,4.48,0,0,0-1.46-3.28,4.64,4.64,0,0,0-3.3-1.43,5,5,0,0,0-3.65,1.65,5.23,5.23,0,0,0-1.6,3.71c0,.31.27.47.81.47a55.44,55.44,0,0,0,7.9-.67C372.66,261.9,373.09,261.75,373.09,261.57Z" transform="translate(-110.52 -43.83)"/>
        <path class="N unhide" d="M401.21,274.48c0,.33-.15.49-.45.49l-2.2,0-2.2,0c-.27,0-.4-.22-.4-.65,0-.73,0-1.84.07-3.33s.06-2.6.06-3.35c0-.59,0-1.48,0-2.67s0-2.07,0-2.67a6.51,6.51,0,0,0-.74-3.59c-.59-.84-1.69-1.25-3.3-1.25a6.52,6.52,0,0,0-3.11,1.25q-2.1,1.32-2.1,2.34v13.4c0,.38-.14.56-.42.56l-2.15,0-2.14,0c-.31,0-.47-.17-.47-.52,0-1.17,0-2.94.06-5.29s.05-4.12.05-5.31a36.13,36.13,0,0,0-1-8.78,1,1,0,0,1-.07-.29c0-.15.1-.26.29-.32l2.56-.41c1.6-.26,2.44-.39,2.51-.39s.15.12.18.36a14.66,14.66,0,0,0,.51,2.79q1.17-.91,3.06-2.28a8.78,8.78,0,0,1,4.54-1.43q4.2,0,5.74,2.44,1.14,1.78,1.14,5.78c0,.46,0,1.17,0,2.12s0,1.67,0,2.15c0,1,0,2.48,0,4.46S401.21,273.48,401.21,274.48Z" transform="translate(-110.52 -43.83)"/>
        <path class="G unhide" d="M425.13,254.11q0,2.69-.05,8.05t0,8.06q0,5.31-2.28,7.83-2.38,2.68-7.64,2.68a15.47,15.47,0,0,1-8.19-1.92c-.33-.2-.5-.38-.5-.53,0,.16.23-.94.67-3.31,0-.25.15-.38.32-.38a.66.66,0,0,1,.29.11,13.4,13.4,0,0,0,6.72,1.93,6.34,6.34,0,0,0,3.66-1,3.64,3.64,0,0,0,1.68-3.24q0-.47-.09-2.1a7.8,7.8,0,0,1-6.3,3,8.71,8.71,0,0,1-6.79-3,10.2,10.2,0,0,1-2.55-7,10.93,10.93,0,0,1,2.46-7.21,8.4,8.4,0,0,1,6.79-3.17,7,7,0,0,1,5.85,2.83c.24.32.41.47.52.47s.17-.13.17-.4,0-.5,0-.93,0-.74,0-.94c0-.9.08-1.34.26-1.34s1,.13,2.42.41,2.25.44,2.39.5A.55.55,0,0,1,425.13,254.11Zm-5.36,9.2a6.73,6.73,0,0,0-1.36-4.24,4.76,4.76,0,0,0-3.94-1.9,4.71,4.71,0,0,0-3.9,1.92,7.11,7.11,0,0,0,0,8.42,4.89,4.89,0,0,0,7.77,0A6.5,6.5,0,0,0,419.77,263.31Z" transform="translate(-110.52 -43.83)"/>
        <path class="Efour unhide" d="M448.16,262.93a2.17,2.17,0,0,1-1.43,2.22q-1,.35-13.83,1.31a5,5,0,0,0,2.17,3.35,6.33,6.33,0,0,0,3.84,1.32,10.37,10.37,0,0,0,6.48-2.28l.71-.58a.37.37,0,0,1,.23.05s.32.54.84,1.55a12.54,12.54,0,0,1,.78,1.62c0,.09-.12.26-.35.51a11.26,11.26,0,0,1-19.77-7.86,11.87,11.87,0,0,1,2.95-8,9.73,9.73,0,0,1,7.62-3.55,9.13,9.13,0,0,1,7,3.08A10.41,10.41,0,0,1,448.16,262.93Zm-5.32-1.36a4.48,4.48,0,0,0-1.46-3.28,4.64,4.64,0,0,0-3.3-1.43,5,5,0,0,0-3.65,1.65,5.23,5.23,0,0,0-1.6,3.71c0,.31.27.47.81.47a55.44,55.44,0,0,0,7.9-.67C442.41,261.9,442.84,261.75,442.84,261.57Z" transform="translate(-110.52 -43.83)"/>
        <path class="Rto unhide" d="M464.06,254a26.52,26.52,0,0,1-.34,4.46c0,.35-.19.52-.44.52s-.79,0-1.42-.1a14.17,14.17,0,0,0-1.44-.1c-1.88,0-3.08.52-3.6,1.58a10.88,10.88,0,0,0-.47,4v2.46c0,.83,0,2.1.1,3.79s.1,3,.1,3.8q0,.6-.51.6l-2.1,0-2.1,0c-.34,0-.51-.19-.51-.56,0-1.21,0-3,.05-5.45s.06-4.25.06-5.47a30.93,30.93,0,0,0-1-8.87,1.16,1.16,0,0,1,0-.27.39.39,0,0,1,.29-.38l2.32-.26c1.61-.3,2.35-.45,2.23-.45.24,0,.4.44.47,1.32s.21,1.31.4,1.31a.24.24,0,0,0,.12,0l1.83-1.16a8.59,8.59,0,0,1,2.05-.9,8.15,8.15,0,0,1,2.24-.26C463.48,253.49,464.06,253.64,464.06,254Z" transform="translate(-110.52 -43.83)"/>
        <path class="Sthree unhide" d="M477,268.05a6.37,6.37,0,0,1-2.66,5.34,9.44,9.44,0,0,1-5.87,1.83,7.69,7.69,0,0,1-1.52-.07c-.26-.12-.38-.48-.38-1.09a11.77,11.77,0,0,0-.13-1.48,13.23,13.23,0,0,1-.12-1.45c0-.19.13-.32.4-.38a2.83,2.83,0,0,1,.83,0l.67.07c2.81,0,4.22-.87,4.22-2.59,0-.82-.62-1.57-1.85-2.26a36.29,36.29,0,0,1-3.47-2,5.22,5.22,0,0,1-1.85-4.15,6.13,6.13,0,0,1,2.53-5.23,9.43,9.43,0,0,1,5.76-1.68.49.49,0,0,1,.46.29,16.84,16.84,0,0,1,.55,1.81,11.6,11.6,0,0,1,.42,1.83c0,.17-.14.27-.43.32l-2.88.38c-1.15.31-1.72.93-1.72,1.87,0,.67.6,1.35,1.81,2a21.21,21.21,0,0,1,3.4,2.16A5.89,5.89,0,0,1,477,268.05Z" transform="translate(-110.52 -43.83)"/>
        <rect class="cls-2" x="0.1" width="385.11" height="325.26"/></g></svg>